# xmcd
#
# Track frame offsets:
#	150
#	27257
#	46477
#	69062
#	86225
#	107560
#	135305
#	153987
#	171232
#	201650
#	226672
#	250372
#	278419
#	300604
#
# Disc length: 4317 seconds
#
# Revision: 1
# Processed by: cddbd v1.5.1PL0 Copyright (c) Steve Scherf et al.
# Submitted via: audiograbber 1.83.01
#
DISCID=b310db0e
DTITLE=John Campbell - One Believer - Howlin' Mercy - A Man And His Blues [CD 1
DTITLE=)
DYEAR=1900
DGENRE=Blues
TTITLE0=Devil In My Closet
TTITLE1=Angel Of Sorrow
TTITLE2=Wild Streak
TTITLE3=Couldn't Do Nothin'
TTITLE4=Tiny Coffin
TTITLE5=World Of Trouble
TTITLE6=Voodoo Edge
TTITLE7=Person To Person
TTITLE8=Take Me Down
TTITLE9=One Believer
TTITLE10=Ain't Afraid Of Midnight
TTITLE11=When The Levee Breaks
TTITLE12=Down In The Hole
TTITLE13=Look What Love Can Do
EXTD=3 LP in 2 CD\nOne Believer (1991) - CD 1 (1 - 10]\nHowlin' Mercy (1993) CD
EXTD=1 (11 - 14), CD 2 (1 - 6]\nA Man And His Blues (1994) CD 2 (7 - 15)
EXTT0=
EXTT1=
EXTT2=
EXTT3=
EXTT4=
EXTT5=
EXTT6=
EXTT7=
EXTT8=
EXTT9=
EXTT10=
EXTT11=
EXTT12=
EXTT13=
PLAYORDER=
